<svg width="341" height="320" viewBox="0 0 341 320" fill="none" xmlns="http://www.w3.org/2000/svg">
<path fill-rule="evenodd" clip-rule="evenodd" d="M106.698 36.1154C123.788 23.8571 140.495 9.09297 160.245 3.62678C179.995 -1.83932 197.706 5.86192 217.061 5.57074C237.684 5.2605 260.031 -2.32985 278.998 1.84025C298.668 6.16515 325.335 11.2663 327.397 29.8298C329.98 53.0861 298.873 76.264 289.979 100.701C285.274 113.629 282.438 128.051 287.773 138.708C299.856 162.847 348.976 170.75 339.752 200.134C332.156 224.335 286.545 216.365 260.101 226.866C242.777 233.745 224.302 239.534 210.03 251.646C187.209 271.014 181.248 308.476 153.152 317.63C128.822 325.558 116.791 297.095 97.0281 288.467C79.978 281.024 54.8373 283.458 43.8756 269.923C32.5825 255.978 43.2868 232.093 37.4941 214.954C32.2493 199.437 16.9514 189.794 11.5691 174.338C5.47599 156.842 -5.90028 137.9 3.85238 118.351C13.8442 98.3221 42.3966 89.719 61.3393 74.5724C76.9924 62.0562 90.3626 47.8331 106.698 36.1154Z" fill="url(#paint0_linear_2_8)"/>
<defs>
<linearGradient id="paint0_linear_2_8" x1="218.99" y1="-37.1027" x2="284.158" y2="169.789" gradientUnits="userSpaceOnUse">
<stop stop-color="#FC2207"/>
<stop offset="1" stop-color="#FCC607"/>
</linearGradient>
</defs>
</svg>
