<svg width="381" height="374" viewBox="0 0 381 374" fill="none" xmlns="http://www.w3.org/2000/svg">
<path fill-rule="evenodd" clip-rule="evenodd" d="M68.3394 35.5365C80.2829 22.586 90.7081 6.64207 108.427 1.94968C126.146 -2.74264 147.708 7.93234 167.352 9.3158C188.283 10.7899 207.699 3.82088 228.955 10.438C250.999 17.3007 280.54 25.7044 291.001 47.81C304.107 75.5037 282.756 100.098 284.667 128.162C285.678 143.009 289.271 159.786 299.518 172.848C322.727 202.432 376.471 216.147 380.271 250.024C383.401 277.924 333.213 264.442 310.92 274.483C296.317 281.06 280.046 286.248 270.915 299.277C256.315 320.112 267.084 363.818 242.499 372.121C221.208 379.312 196.105 344.626 172.031 332.674C151.26 322.362 126.669 322.994 109.378 306.031C91.5638 288.556 91.7511 261.306 78.1192 240.55C65.7769 221.757 45.8071 209.005 33.352 190.273C19.2523 169.068 -0.895578 145.685 0.270575 123.47C1.46532 100.709 26.7659 93.0981 39.3031 76.9021C49.6632 63.5188 56.9226 47.916 68.3394 35.5365Z" fill="url(#paint0_linear_2_7)"/>
<defs>
<linearGradient id="paint0_linear_2_7" x1="150.117" y1="-40.9048" x2="77.1548" y2="406.014" gradientUnits="userSpaceOnUse">
<stop stop-color="#FC2207"/>
<stop offset="1" stop-color="#FCC607"/>
</linearGradient>
</defs>
</svg>
